<svg width="163" height="163" viewBox="0 0 163 163" fill="none" xmlns="http://www.w3.org/2000/svg">
<path fill-rule="evenodd" clip-rule="evenodd" d="M29.9776 121.293C32.4078 119.876 35.5266 120.697 36.9438 123.127C42.5596 132.757 51.1449 140.04 61.7322 144.765C64.3012 145.912 65.4543 148.924 64.3077 151.493C63.1611 154.062 60.1491 155.215 57.5802 154.068C45.277 148.577 34.955 139.94 28.1433 128.259C26.7262 125.829 27.5474 122.71 29.9776 121.293Z" fill="#FC9537"/>
<path fill-rule="evenodd" clip-rule="evenodd" d="M128.402 26.6367C121.516 19.6041 111.696 17.01 102.082 19.7455C99.376 20.5155 96.5584 18.9461 95.7885 16.2403C95.0186 13.5345 96.5879 10.7169 99.2937 9.94699C112.457 6.20145 126.152 9.77741 135.681 19.5092C137.65 21.5193 137.616 24.7443 135.606 26.7125C133.596 28.6807 130.371 28.6467 128.402 26.6367Z" fill="#FC9537"/>
<path fill-rule="evenodd" clip-rule="evenodd" d="M76.0003 22.4696C74.5465 19.9766 70.3098 18.4646 66.0061 20.9243C61.7181 23.3749 60.9639 27.6946 62.3925 30.1443L79.5459 59.5598C80.963 61.99 80.1418 65.1089 77.7116 66.526C75.2814 67.9432 72.1625 67.1219 70.7454 64.6918L47.8742 25.4711C46.4204 22.978 42.1836 21.4661 37.8799 23.9257C33.592 26.3763 32.8378 30.6961 34.2663 33.1458L59.9965 77.269C61.4136 79.6992 60.5924 82.8181 58.1622 84.2352C55.732 85.6524 52.6131 84.8311 51.196 82.401L39.7604 62.7906C38.3066 60.2976 34.0698 58.7856 29.7661 61.2453C25.4782 63.6959 24.724 68.0156 26.1525 70.4653L51.8827 114.589C62.81 133.327 89.7754 139.409 112.643 126.34C135.494 113.28 143.618 87.1895 132.715 68.494L115.562 39.0785C114.108 36.5855 109.871 35.0735 105.568 37.5332C101.28 39.9838 100.526 44.3035 101.954 46.7532L113.39 66.3636C114.074 67.5372 114.261 68.9357 113.91 70.248C113.558 71.5604 112.697 72.6778 111.517 73.352C101.041 79.339 97.8307 90.9156 102.417 98.7805C103.834 101.211 103.013 104.33 100.583 105.747C98.1526 107.164 95.0338 106.343 93.6166 103.912C87.4177 93.2823 89.9224 80.4824 97.9291 71.4353C100.167 68.9061 100.934 65.227 99.2325 62.3095L76.0003 22.4696Z" fill="#FC9537"/>
</svg>
