<?xml version="1.0" encoding="utf-8"?><svg xmlns="http://www.w3.org/2000/svg" xmlns:xlink="http://www.w3.org/1999/xlink"><symbol fill="none" viewBox="0 0 163 163" id="hand" xmlns="http://www.w3.org/2000/svg"><path fill-rule="evenodd" clip-rule="evenodd" d="M29.978 121.293a5.094 5.094 0 016.966 1.834c5.616 9.63 14.2 16.913 24.788 21.638a5.094 5.094 0 01-4.152 9.303c-12.303-5.491-22.625-14.128-29.437-25.809a5.094 5.094 0 011.835-6.966zm98.424-94.656c-6.886-7.033-16.706-9.627-26.32-6.892a5.094 5.094 0 11-2.788-9.798c13.163-3.746 26.858-.17 36.387 9.562a5.093 5.093 0 11-7.279 7.128zM76 22.47c-1.454-2.493-5.69-4.005-9.994-1.546-4.288 2.45-5.042 6.77-3.614 9.22L79.546 59.56a5.094 5.094 0 01-8.8 5.132l-22.872-39.22c-1.454-2.494-5.69-4.006-9.994-1.546-4.288 2.45-5.042 6.77-3.614 9.22l25.73 44.123a5.094 5.094 0 01-8.8 5.132L39.76 62.791c-1.453-2.493-5.69-4.005-9.994-1.546-4.288 2.45-5.042 6.77-3.613 9.22l25.73 44.124c10.927 18.738 37.892 24.82 60.76 11.751 22.851-13.06 30.975-39.15 20.072-57.846l-17.153-29.416c-1.454-2.492-5.691-4.005-9.994-1.545-4.288 2.45-5.042 6.77-3.614 9.22l11.436 19.61a5.094 5.094 0 01-1.873 6.988c-10.476 5.988-13.686 17.565-9.1 25.43a5.094 5.094 0 11-8.8 5.131c-6.2-10.63-3.695-23.43 4.312-32.477 2.238-2.529 3.005-6.208 1.303-9.126L76 22.47z" fill="#FC9537"/></symbol><symbol fill="none" viewBox="0 0 24 24" id="stick" xmlns="http://www.w3.org/2000/svg"><path d="M13.036 3.652l-.573.339c-.63.373-.945.56-1.291.603-.347.043-.687-.061-1.365-.27l-.618-.19c-2.39-.736-3.584-1.103-4.302-.446-.718.657-.484 1.904-.016 4.397l.121.645c.133.709.2 1.063.12 1.409-.078.346-.293.645-.724 1.242l-.392.544C2.48 14.028 1.723 15.08 2.093 15.95c.37.872 1.621.987 4.126 1.216l.647.06c.712.064 1.068.097 1.366.267.298.17.504.46.917 1.038l.376.526c1.452 2.035 2.178 3.052 3.125 2.934.946-.119 1.486-1.295 2.566-3.646l.28-.609c.156-.341.273-.596.385-.795l4.589 4.59a.75.75 0 101.06-1.061l-4.43-4.432c.122-.045.258-.092.411-.146l.624-.218c2.413-.846 3.62-1.268 3.835-2.213.215-.945-.703-1.786-2.54-3.469l-.475-.435c-.522-.478-.783-.717-.919-1.036-.135-.32-.13-.683-.118-1.41l.01-.661c.038-2.557.058-3.835-.755-4.3-.814-.466-1.921.19-4.136 1.502z" fill="#fff"/></symbol></svg>